# Blender v2.80 (sub 75) OBJ File: ''
# www.blender.org
mtllib b.mtl
o Grid
v -9.998719 -0.308680 9.959317
v -7.776497 -0.308680 9.959317
v -5.554275 1.833420 9.959317
v -3.332052 -0.308680 9.959317
v -1.109830 -0.308680 9.959317
v 1.112392 -0.308680 9.959317
v 3.334615 -0.308680 9.959317
v 5.556836 -0.308680 9.959317
v 7.779058 -0.308680 9.959317
v 10.001281 -0.308680 9.959317
v -9.998719 -0.308680 7.737095
v -7.776497 -0.318877 7.737095
v -5.554275 -0.570782 7.737095
v -3.316256 -0.949149 7.737566
v -1.104114 -0.395616 7.736794
v 1.112392 -0.308680 7.737095
v 3.334615 -0.308680 7.737095
v 5.556836 -0.308606 7.737095
v 7.779058 0.224562 7.737095
v 10.001338 -0.304917 7.737088
v -9.998719 -0.308680 5.514874
v -7.776614 -0.681083 5.514873
v -5.566238 -1.461657 5.516497
v -3.185134 -2.325373 5.482361
v -1.082111 -0.607208 5.506275
v 1.112392 -0.308680 5.514874
v 3.334615 -0.308680 5.514874
v 5.555595 -0.297784 5.515699
v 7.817402 2.024844 5.678630
v 10.034335 -0.046059 5.504553
v -9.998719 -0.308680 3.292651
v -7.778373 -0.419059 3.289553
v -5.537416 -1.471466 3.217009
v -3.278188 -0.734994 3.249370
v -1.109830 -0.308680 3.292651
v 1.112392 -0.308680 3.292651
v 3.334615 -0.308680 3.292651
v 5.318284 1.146656 3.425200
v 7.640704 2.377596 3.411478
v 10.001842 -0.284080 3.292220
v -9.998719 -0.308680 1.070428
v -7.778648 -0.712365 1.051415
v -5.553041 -0.348584 1.066978
v -3.332051 -0.308696 1.070427
v -1.109830 -0.308680 1.070428
v 1.112392 -0.308680 1.070428
v 3.334614 -0.308624 1.070426
v 5.356220 1.238523 1.126875
v 7.817411 1.186548 0.989068
v 10.002081 -0.300571 1.069919
v -9.998719 -0.308680 -1.151794
v -7.776497 -0.308680 -1.151794
v -5.554275 -0.308680 -1.151794
v -3.332052 -0.308680 -1.151794
v -1.109830 -0.308680 -1.151794
v 1.112392 -0.308680 -1.151794
v 2.356725 1.109226 -1.150932
v 5.306608 1.684948 -1.207611
v 7.828220 1.216111 -1.211291
v 10.034461 0.138525 -1.160795
v -9.998719 -0.308680 -3.374016
v -7.776497 -0.308680 -3.374016
v -5.554275 -0.308680 -3.374016
v -3.332052 -0.308680 -3.374016
v -1.109830 -0.308680 -3.374016
v 1.112392 -0.308599 -3.374016
v 3.303192 0.155944 -3.371845
v 5.438037 1.018560 -3.429961
v 7.803875 0.567316 -3.377631
v 10.018578 0.190270 -3.371721
v -9.998719 -0.308680 -5.596238
v -7.776497 0.995262 -5.596238
v -5.554275 -0.308680 -5.596238
v -3.332102 -0.306793 -5.596267
v -1.116874 0.151045 -5.597832
v 1.112361 0.582723 -5.596476
v 3.336956 0.315489 -5.599415
v 5.570739 -0.049143 -5.606620
v 7.789641 0.491439 -5.606711
v 10.002826 0.001766 -5.599220
v -9.998719 -0.308680 -7.818460
v -7.776497 -0.308680 -7.818460
v -5.555100 -0.281590 -7.818613
v -3.361393 0.319067 -7.831265
v -1.159773 0.574764 -7.836590
v 1.110404 -0.040107 -7.837578
v 3.343907 4.948948 -7.833266
v 5.560151 -0.253672 -7.821011
v 7.779253 -0.266751 -7.818592
v 10.001281 -0.307100 -7.818460
v -9.998719 -0.308680 -10.040683
v -7.776497 -0.308680 -10.040683
v -5.554275 -0.308680 -10.040683
v -3.332052 -0.308680 -10.040683
v -1.109830 -0.308680 -10.040683
v 1.112392 -0.308680 -10.040683
v 3.334615 -0.308680 -10.040683
v 5.556836 -0.308680 -10.040683
v 7.779058 -0.308680 -10.040683
v 10.001281 -0.308680 -10.040683
v 1.375078 8.447781 4.603992
vt 0.111111 0.000000
vt 0.000000 0.111111
vt 0.000000 0.000000
vt 0.222222 0.000000
vt 0.111111 0.111111
vt 0.333333 0.000000
vt 0.222222 0.111111
vt 0.444444 0.000000
vt 0.333333 0.111111
vt 0.555556 0.000000
vt 0.444444 0.111111
vt 0.666667 0.000000
vt 0.555556 0.111111
vt 0.777778 0.000000
vt 0.666667 0.111111
vt 0.888889 0.000000
vt 0.777778 0.111111
vt 1.000000 0.000000
vt 0.888889 0.111111
vt 0.000000 0.222222
vt 0.111111 0.222222
vt 0.222222 0.222222
vt 0.333333 0.222222
vt 0.444444 0.222222
vt 0.555556 0.222222
vt 0.666667 0.222222
vt 0.777778 0.222222
vt 1.000000 0.111111
vt 0.888889 0.222222
vt 0.000000 0.333333
vt 0.111111 0.333333
vt 0.222222 0.333333
vt 0.333333 0.333333
vt 0.444444 0.333333
vt 0.555556 0.333333
vt 0.666667 0.333333
vt 0.777778 0.333333
vt 1.000000 0.222222
vt 0.888889 0.333333
vt 0.000000 0.444444
vt 0.111111 0.444444
vt 0.222222 0.444444
vt 0.333333 0.444444
vt 0.444444 0.444444
vt 0.555556 0.444444
vt 0.666667 0.444444
vt 0.777778 0.444444
vt 1.000000 0.333333
vt 0.888889 0.444444
vt 0.000000 0.555556
vt 0.111111 0.555556
vt 0.222222 0.555556
vt 0.333333 0.555556
vt 0.444444 0.555556
vt 0.555556 0.555556
vt 0.666667 0.555556
vt 0.777778 0.555556
vt 1.000000 0.444444
vt 0.888889 0.555556
vt 0.000000 0.666667
vt 0.111111 0.666667
vt 0.222222 0.666667
vt 0.333333 0.666667
vt 0.444444 0.666667
vt 0.555556 0.666667
vt 0.666667 0.666667
vt 0.777778 0.666667
vt 1.000000 0.555556
vt 0.888889 0.666667
vt 0.000000 0.777778
vt 0.111111 0.777778
vt 0.222222 0.777778
vt 0.333333 0.777778
vt 0.444444 0.777778
vt 0.555556 0.777778
vt 0.666667 0.777778
vt 0.777778 0.777778
vt 1.000000 0.666667
vt 0.888889 0.777778
vt 0.000000 0.888889
vt 0.111111 0.888889
vt 0.222222 0.888889
vt 0.333333 0.888889
vt 0.444444 0.888889
vt 0.555556 0.888889
vt 0.666667 0.888889
vt 0.777778 0.888889
vt 1.000000 0.777778
vt 0.888889 0.888889
vt 0.000000 1.000000
vt 0.111111 1.000000
vt 0.222222 1.000000
vt 0.333333 1.000000
vt 0.444444 1.000000
vt 0.555556 1.000000
vt 0.666667 1.000000
vt 0.777778 1.000000
vt 1.000000 0.888889
vt 0.888889 1.000000
vt 1.000000 1.000000
vt 0.000000 0.000000
vt 0.000000 0.000000
vt 0.000000 0.000000
vt 0.000000 0.000000
vn 0.0000 1.0000 0.0000
vn -0.6940 0.7200 -0.0033
vn 0.5475 0.5680 -0.6145
vn 0.0000 0.9609 -0.2770
vn 0.0000 0.9992 -0.0391
vn 0.0000 0.9724 0.2333
vn 0.0046 1.0000 0.0000
vn 0.1112 0.9809 -0.1599
vn 0.1550 0.9166 -0.3686
vn -0.2078 0.8296 -0.5183
vn -0.0390 0.9947 -0.0947
vn -0.2333 0.9724 0.0049
vn 0.1762 0.7393 0.6499
vn 0.1653 0.9862 0.0000
vn 0.3309 0.9372 0.1101
vn 0.3410 0.9401 0.0003
vn -0.5517 0.6683 0.4990
vn -0.1341 0.9819 0.1341
vn -0.0049 1.0000 0.0000
vn -0.6440 0.5933 0.4830
vn 0.6839 0.7271 0.0598
vn 0.0497 0.9988 0.0000
vn 0.4190 0.9003 -0.1180
vn -0.2832 0.8493 0.4456
vn -0.1930 0.9620 0.1930
vn -0.5915 0.8063 0.0000
vn -0.4680 0.8833 0.0276
vn 0.7153 0.6464 -0.2656
vn 0.1789 0.9839 0.0000
vn -0.1600 0.9710 0.1778
vn -0.0180 0.9997 0.0180
vn -0.4914 0.6198 0.6119
vn 0.0312 0.9818 0.1871
vn 0.5623 0.8268 0.0139
vn -0.7516 0.6596 0.0000
vn -0.1793 0.8740 -0.4516
vn 0.1755 0.9458 -0.2732
vn 0.4282 0.8644 -0.2637
vn 0.0000 0.8625 0.5061
vn 0.0000 1.0000 0.0008
vn -0.0000 0.9793 0.2024
vn -0.1934 0.9106 0.3652
vn -0.3725 0.9260 0.0607
vn 0.1787 0.8876 -0.4245
vn 0.1678 0.9852 -0.0346
vn -0.5061 0.8625 0.0000
vn 0.4516 0.7695 -0.4516
vn -0.0008 0.9999 0.0122
vn -0.1949 0.9438 0.2669
vn -0.1869 0.9646 0.1861
vn 0.1146 0.9571 -0.2661
vn 0.0736 0.4330 0.8984
vn -0.2358 0.9678 -0.0883
vn 0.2058 0.9254 -0.3182
vn -0.0122 0.9999 0.0000
vn -0.2641 0.9644 -0.0119
vn -0.1116 0.9555 -0.2730
vn 0.2442 0.9020 -0.3560
vn -0.9115 0.4081 -0.0506
vn 0.6733 0.2852 -0.6821
vn 0.0059 0.9997 -0.0248
vn 0.0182 0.9997 -0.0189
vn 0.0046 1.0000 -0.0046
vn 0.0767 0.6768 -0.7322
vn 0.1605 0.9487 -0.2724
vn -0.2426 0.9694 -0.0385
vn -0.0392 0.9992 0.0000
vn -0.2272 0.9470 0.2272
vn 0.2318 0.9728 0.0017
vn 0.1632 0.9737 -0.1587
vn 0.3115 0.8813 -0.3553
vn 0.2919 0.8239 -0.4858
vn -0.6301 0.7724 -0.0795
vn -0.1348 0.9909 0.0000
vn -0.0049 1.0000 0.0049
vn -0.6376 0.5858 0.5004
vn 0.6835 0.7238 0.0940
vn 0.0495 0.9919 0.1168
vn 0.4251 0.9051 0.0015
vn -0.2626 0.7807 0.5670
vn -0.1938 0.9719 0.1335
vn -0.5267 0.6702 0.5229
vn -0.4606 0.8709 0.1714
vn 0.7437 0.6634 -0.0823
vn 0.1764 0.9760 -0.1279
vn -0.1465 0.8764 0.4588
vn -0.0179 0.9812 0.1924
vn -0.6080 0.7936 0.0217
vn -0.0058 0.8972 -0.4416
vn 0.5629 0.8265 -0.0061
vn 0.0000 0.9836 0.1802
vn 0.0000 0.9998 0.0180
vn -0.6009 0.5270 0.6009
vn -0.1846 0.9646 0.1884
vn 0.1828 0.9830 0.0141
vn 0.4283 0.8854 0.1805
vn -0.1845 0.8722 -0.4530
vn -0.3656 0.8854 -0.2871
vn 0.1857 0.9407 -0.2838
vn 0.1677 0.9856 0.0219
vn -0.4516 0.7695 0.4516
vn 0.5061 0.8625 0.0000
vn -0.0008 1.0000 0.0008
vn -0.1982 0.9597 0.1990
vn -0.1771 0.9135 0.3663
vn 0.1190 0.9902 0.0727
vn 0.1442 0.8919 -0.4287
vn -0.2366 0.9711 -0.0315
vn 0.2155 0.9729 -0.0839
vn 0.0000 0.8625 -0.5061
vn -0.0122 0.9999 0.0122
vn -0.2533 0.9307 0.2639
vn -0.1129 0.9759 0.1869
vn 0.2524 0.9322 -0.2593
vn -0.6979 0.3119 0.6447
vn 0.9193 0.3915 -0.0406
vn 0.0059 0.9459 -0.3243
vn 0.0180 0.9903 -0.1378
vn 0.0000 0.9999 -0.0122
vn 0.0000 0.9619 -0.2733
vn 0.0000 0.9282 -0.3720
vn 0.0000 0.9927 -0.1210
vn 0.0000 0.3871 -0.9220
vn 0.0000 0.9997 -0.0248
vn 0.0000 0.9998 -0.0189
vn 0.0000 1.0000 -0.0007
vn 0.5291 0.4061 -0.7451
vn -0.7002 -0.7117 -0.0562
vn 0.0704 -0.1218 0.9901
usemtl None
s off
f 2/1/1 11/2/1 1/3/1
f 3/4/2 12/5/2 2/1/2
f 4/6/3 13/7/3 3/4/3
f 5/8/4 14/9/4 4/6/4
f 6/10/5 15/11/5 5/8/5
f 7/12/1 16/13/1 6/10/1
f 8/14/1 17/15/1 7/12/1
f 9/16/1 18/17/1 8/14/1
f 10/18/6 19/19/6 9/16/6
f 12/5/7 21/20/7 11/2/7
f 13/7/8 22/21/8 12/5/8
f 14/9/9 23/22/9 13/7/9
f 15/11/10 24/23/10 14/9/10
f 16/13/11 25/24/11 15/11/11
f 17/15/1 26/25/1 16/13/1
f 18/17/1 27/26/1 17/15/1
f 19/19/12 28/27/12 18/17/12
f 20/28/13 29/29/13 19/19/13
f 22/21/14 31/30/14 21/20/14
f 23/22/15 32/31/15 22/21/15
f 24/23/16 33/32/16 23/22/16
f 25/24/17 34/33/17 24/23/17
f 26/25/18 35/34/18 25/24/18
f 27/26/1 36/35/1 26/25/1
f 28/27/19 37/36/19 27/26/19
f 29/29/20 38/37/20 28/27/20
f 30/38/21 39/39/21 29/29/21
f 32/31/22 41/40/22 31/30/22
f 33/32/23 42/41/23 32/31/23
f 34/33/24 43/42/24 33/32/24
f 35/34/25 44/43/25 34/33/25
f 36/35/1 45/44/1 35/34/1
f 37/36/1 46/45/1 36/35/1
f 38/37/26 47/46/26 37/36/26
f 39/39/27 48/47/27 38/37/27
f 40/48/28 49/49/28 39/39/28
f 42/41/29 51/50/29 41/40/29
f 43/42/30 52/51/30 42/41/30
f 44/43/31 53/52/31 43/42/31
f 45/44/1 54/53/1 44/43/1
f 46/45/1 55/54/1 45/44/1
f 47/46/1 56/55/1 46/45/1
f 48/47/32 57/56/32 47/46/32
f 49/49/33 58/57/33 48/47/33
f 50/58/34 59/59/34 49/49/34
f 52/51/1 61/60/1 51/50/1
f 53/52/1 62/61/1 52/51/1
f 54/53/1 63/62/1 53/52/1
f 55/54/1 64/63/1 54/53/1
f 56/55/1 65/64/1 55/54/1
f 57/56/35 66/65/35 56/55/35
f 58/57/36 67/66/36 57/56/36
f 59/59/37 68/67/37 58/57/37
f 60/68/38 69/69/38 59/59/38
f 62/61/1 71/70/1 61/60/1
f 63/62/39 72/71/39 62/61/39
f 64/63/1 73/72/1 63/62/1
f 65/64/40 74/73/40 64/63/40
f 66/65/41 75/74/41 65/64/41
f 67/66/42 76/75/42 66/65/42
f 68/67/43 77/76/43 67/66/43
f 69/69/44 78/77/44 68/67/44
f 70/78/45 79/79/45 69/69/45
f 72/71/46 81/80/46 71/70/46
f 73/72/47 82/81/47 72/71/47
f 74/73/48 83/82/48 73/72/48
f 75/74/49 84/83/49 74/73/49
f 76/75/50 85/84/50 75/74/50
f 77/76/51 86/85/51 76/75/51
f 78/77/52 87/86/52 77/76/52
f 79/79/53 88/87/53 78/77/53
f 80/88/54 89/89/54 79/79/54
f 82/81/1 91/90/1 81/80/1
f 83/82/55 92/91/55 82/81/55
f 84/83/56 93/92/56 83/82/56
f 85/84/57 94/93/57 84/83/57
f 86/85/58 95/94/58 85/84/58
f 87/86/59 96/95/59 86/85/59
f 88/87/60 97/96/60 87/86/60
f 89/89/61 98/97/61 88/87/61
f 90/98/62 99/99/62 89/89/62
f 2/1/63 12/5/63 11/2/63
f 3/4/64 13/7/64 12/5/64
f 4/6/65 14/9/65 13/7/65
f 5/8/66 15/11/66 14/9/66
f 6/10/67 16/13/67 15/11/67
f 7/12/1 17/15/1 16/13/1
f 8/14/1 18/17/1 17/15/1
f 9/16/68 19/19/68 18/17/68
f 10/18/69 20/28/69 19/19/69
f 12/5/70 22/21/70 21/20/70
f 13/7/71 23/22/71 22/21/71
f 14/9/72 24/23/72 23/22/72
f 15/11/73 25/24/73 24/23/73
f 16/13/74 26/25/74 25/24/74
f 17/15/1 27/26/1 26/25/1
f 18/17/75 28/27/75 27/26/75
f 19/19/76 29/29/76 28/27/76
f 20/28/77 30/38/77 29/29/77
f 22/21/78 32/31/78 31/30/78
f 23/22/79 33/32/79 32/31/79
f 24/23/80 34/33/80 33/32/80
f 25/24/81 35/34/81 34/33/81
f 26/25/1 36/35/1 35/34/1
f 27/26/1 37/36/1 36/35/1
f 28/27/82 38/37/82 37/36/82
f 29/29/83 39/39/83 38/37/83
f 30/38/84 40/48/84 39/39/84
f 32/31/85 42/41/85 41/40/85
f 33/32/86 43/42/86 42/41/86
f 34/33/87 44/43/87 43/42/87
f 35/34/1 45/44/1 44/43/1
f 36/35/1 46/45/1 45/44/1
f 37/36/1 47/46/1 46/45/1
f 38/37/88 48/47/88 47/46/88
f 39/39/89 49/49/89 48/47/89
f 40/48/90 50/58/90 49/49/90
f 42/41/91 52/51/91 51/50/91
f 43/42/92 53/52/92 52/51/92
f 44/43/1 54/53/1 53/52/1
f 45/44/1 55/54/1 54/53/1
f 46/45/1 56/55/1 55/54/1
f 47/46/93 57/56/93 56/55/93
f 48/47/94 58/57/94 57/56/94
f 49/49/95 59/59/95 58/57/95
f 50/58/96 60/68/96 59/59/96
f 52/51/1 62/61/1 61/60/1
f 53/52/1 63/62/1 62/61/1
f 54/53/1 64/63/1 63/62/1
f 55/54/1 65/64/1 64/63/1
f 56/55/1 66/65/1 65/64/1
f 57/56/97 67/66/97 66/65/97
f 58/57/98 68/67/98 67/66/98
f 59/59/99 69/69/99 68/67/99
f 60/68/100 70/78/100 69/69/100
f 62/61/101 72/71/101 71/70/101
f 63/62/102 73/72/102 72/71/102
f 64/63/103 74/73/103 73/72/103
f 65/64/104 75/74/104 74/73/104
f 66/65/105 76/75/105 75/74/105
f 67/66/106 77/76/106 76/75/106
f 68/67/107 78/77/107 77/76/107
f 69/69/108 79/79/108 78/77/108
f 70/78/109 80/88/109 79/79/109
f 72/71/110 82/81/110 81/80/110
f 73/72/111 83/82/111 82/81/111
f 74/73/112 84/83/112 83/82/112
f 75/74/113 85/84/113 84/83/113
f 76/75/114 86/85/114 85/84/114
f 77/76/115 87/86/115 86/85/115
f 78/77/116 88/87/116 87/86/116
f 79/79/117 89/89/117 88/87/117
f 80/88/118 90/98/118 89/89/118
f 82/81/1 92/91/1 91/90/1
f 83/82/119 93/92/119 92/91/119
f 84/83/120 94/93/120 93/92/120
f 85/84/121 95/94/121 94/93/121
f 86/85/122 96/95/122 95/94/122
f 87/86/123 97/96/123 96/95/123
f 88/87/124 98/97/124 97/96/124
f 89/89/125 99/99/125 98/97/125
f 90/98/126 100/100/126 99/99/126
f 38/101/127 101/102/127 29/103/127
f 29/103/128 101/102/128 39/104/128
f 39/104/129 101/102/129 38/101/129
