# Blender v2.80 (sub 75) OBJ File: ''
# www.blender.org
mtllib plane3.mtl
o Grid
v -5.823810 -0.000001 7.487755
v -7.487755 -0.000001 5.823810
v -7.487755 -0.000001 7.487755
v -4.159864 -0.000001 7.487755
v -5.823810 -0.000001 5.823810
v -2.495918 -0.000001 7.487755
v -4.159864 -0.000001 5.823810
v -0.831973 -0.000001 7.487755
v -2.495918 -0.000001 5.823810
v 0.831973 -0.000001 7.487755
v -0.831973 -0.000001 5.823810
v 2.495919 -0.000001 7.487755
v 0.831973 -0.000001 5.823810
v 4.159864 -0.000001 7.487755
v 2.495919 -0.000001 5.823810
v 5.823810 -0.000001 7.487755
v 4.159864 -0.000001 5.823810
v 7.487755 -0.000001 7.487755
v 5.823810 -0.000001 5.823810
v -7.487755 -0.000001 4.159864
v -4.159864 -0.000001 4.159864
v -4.159864 6.973996 5.823811
v -2.495918 -0.000001 4.159864
v -0.831973 -0.000001 4.159864
v 0.831973 -0.000001 4.159864
v 2.495919 -0.000001 4.159864
v 4.159864 0.792423 5.823810
v 7.487755 -0.000001 5.823810
v 5.823810 -0.000001 4.159864
v -5.823810 -0.000001 4.159864
v -7.487755 -0.000000 2.495918
v -5.823810 -0.000000 2.495918
v -4.159864 -0.000000 2.495918
v -2.495918 -0.000000 2.495918
v -0.831973 -0.000000 2.495918
v 0.831973 -0.000000 2.495918
v 4.159864 -0.000001 4.159864
v 2.495919 -0.000000 2.495918
v 4.159864 -0.000000 2.495918
v 7.487755 -0.000001 4.159864
v 5.823810 -0.000000 2.495918
v -7.487755 -0.000000 0.831973
v -5.823810 -0.000000 0.831973
v -4.159864 -0.000000 0.831973
v -2.495918 -0.000000 0.831973
v -0.831973 -0.000000 0.831973
v 0.831973 -0.000000 0.831973
v 2.495919 -0.000000 0.831973
v 4.159864 -0.000000 0.831973
v 7.487755 -0.000000 2.495918
v 5.823810 -0.000000 0.831973
v -7.487755 0.000000 -0.831973
v -5.823810 0.000000 -0.831973
v -4.159864 0.000000 -0.831973
v -2.495918 0.000000 -0.831973
v -0.831973 0.000000 -0.831973
v 0.831973 0.000000 -0.831973
v 2.495919 0.000000 -0.831973
v 4.159864 0.000000 -0.831973
v 7.487755 -0.000000 0.831973
v 5.823810 0.000000 -0.831973
v -7.487755 0.000000 -2.495919
v -5.823810 0.000000 -2.495919
v -4.159864 0.000000 -2.495919
v -2.495918 0.000000 -2.495919
v -0.831973 0.000000 -2.495919
v 0.831973 0.000000 -2.495919
v 2.495919 0.000000 -2.495919
v 4.159864 0.000000 -2.495919
v 7.487755 0.000000 -0.831973
v 5.823810 0.000000 -2.495919
v -7.487755 0.000001 -4.159864
v -5.823810 0.000001 -4.159864
v -4.159864 0.000001 -4.159864
v -2.495918 0.000001 -4.159864
v -0.831973 0.000001 -4.159864
v 0.831973 0.000001 -4.159864
v 2.495919 0.000001 -4.159864
v 4.159864 0.000001 -4.159864
v 7.487755 0.000000 -2.495919
v 5.823810 0.000001 -4.159864
v -7.487755 0.000001 -5.823810
v -4.159864 0.000001 -5.823810
v -4.159864 3.015444 -4.159863
v -2.495918 0.000001 -5.823810
v -0.831973 0.000001 -5.823810
v 0.831973 0.000001 -5.823810
v 2.495919 0.000001 -5.823810
v 4.159864 4.233417 -4.159863
v 7.487755 0.000001 -4.159864
v 5.823810 0.000001 -5.823810
v -5.823810 0.000001 -5.823810
v -7.487755 0.000001 -7.487755
v -5.823810 0.000001 -7.487755
v -4.159864 0.000001 -7.487755
v -2.495918 0.000001 -7.487755
v -0.831973 0.000001 -7.487755
v 0.831973 0.000001 -7.487755
v 4.159864 0.000001 -5.823810
v 2.495919 0.000001 -7.487755
v 4.159864 0.000001 -7.487755
v 7.487755 0.000001 -5.823810
v 5.823810 0.000001 -7.487755
v -5.823810 6.973997 4.159865
v -5.823810 6.973996 5.823811
v -4.159864 6.973997 4.159865
v -5.823810 3.015444 -5.823810
v -5.823810 3.015444 -4.159863
v -4.159864 3.015444 -5.823810
v 5.823810 4.233417 -4.159863
v 4.159864 4.233417 -5.823810
v 5.823810 4.233417 -5.823810
v 5.823810 0.792423 5.823810
v 4.159864 0.792423 4.159864
v 5.823810 0.792423 4.159864
v 7.487755 0.000001 -7.487755
v -5.823810 6.948000 0.831974
v -4.159864 6.948000 0.831974
v -5.823810 6.948000 -0.831972
v -4.159864 6.948000 -0.831972
v -4.159864 5.628530 -0.831972
v -4.159864 5.628530 0.831974
v -5.823810 5.628530 -0.831972
v -5.823810 5.628530 0.831974
v -5.823810 6.948000 4.081852
v -4.159864 6.948000 4.081852
v -5.823810 5.628530 4.081852
v -4.159864 5.628530 4.081852
vt 0.111111 0.000000
vt 0.000000 0.111111
vt 0.000000 0.000000
vt 0.222222 0.000000
vt 0.111111 0.111111
vt 0.333333 0.000000
vt 0.222222 0.111111
vt 0.444444 0.000000
vt 0.333333 0.111111
vt 0.555556 0.000000
vt 0.444444 0.111111
vt 0.666667 0.000000
vt 0.555556 0.111111
vt 0.777778 0.000000
vt 0.666667 0.111111
vt 0.888889 0.000000
vt 0.777778 0.111111
vt 1.000000 0.000000
vt 0.888889 0.111111
vt 0.000000 0.222222
vt 0.222222 0.222222
vt 0.222222 0.111111
vt 0.333333 0.222222
vt 0.444444 0.222222
vt 0.555556 0.222222
vt 0.666667 0.222222
vt 0.777778 0.111111
vt 1.000000 0.111111
vt 0.888889 0.222222
vt 0.111111 0.222222
vt 0.000000 0.333333
vt 0.111111 0.333333
vt 0.222222 0.333333
vt 0.333333 0.333333
vt 0.444444 0.333333
vt 0.555556 0.333333
vt 0.777778 0.222222
vt 0.666667 0.333333
vt 0.777778 0.333333
vt 1.000000 0.222222
vt 0.888889 0.333333
vt 0.000000 0.444444
vt 0.111111 0.444444
vt 0.222222 0.444444
vt 0.333333 0.444444
vt 0.444444 0.444444
vt 0.555556 0.444444
vt 0.666667 0.444444
vt 0.777778 0.444444
vt 1.000000 0.333333
vt 0.888889 0.444444
vt 0.000000 0.555556
vt 0.111111 0.555556
vt 0.222222 0.555556
vt 0.222222 0.555556
vt 0.222222 0.555556
vt 0.333333 0.555556
vt 0.444444 0.555556
vt 0.555556 0.555556
vt 0.666667 0.555556
vt 0.777778 0.555556
vt 1.000000 0.444444
vt 0.888889 0.555556
vt 0.111111 0.555556
vt 0.000000 0.666667
vt 0.111111 0.666667
vt 0.222222 0.666667
vt 0.333333 0.666667
vt 0.444444 0.666667
vt 0.555556 0.666667
vt 0.666667 0.666667
vt 0.777778 0.666667
vt 1.000000 0.555556
vt 0.888889 0.666667
vt 0.000000 0.777778
vt 0.111111 0.777778
vt 0.222222 0.777778
vt 0.333333 0.777778
vt 0.444444 0.777778
vt 0.555556 0.777778
vt 0.666667 0.777778
vt 0.777778 0.777778
vt 1.000000 0.666667
vt 0.888889 0.777778
vt 0.000000 0.888889
vt 0.222222 0.888889
vt 0.222222 0.777778
vt 0.333333 0.888889
vt 0.444444 0.888889
vt 0.555556 0.888889
vt 0.666667 0.888889
vt 0.777778 0.777778
vt 1.000000 0.777778
vt 0.888889 0.888889
vt 0.111111 0.888889
vt 0.000000 1.000000
vt 0.111111 1.000000
vt 0.222222 1.000000
vt 0.333333 1.000000
vt 0.444444 1.000000
vt 0.555556 1.000000
vt 0.777778 0.888889
vt 0.666667 1.000000
vt 0.777778 1.000000
vt 1.000000 0.888889
vt 0.888889 1.000000
vt 0.111111 0.222222
vt 0.111111 0.111111
vt 0.222222 0.222222
vt 0.111111 0.888889
vt 0.111111 0.777778
vt 0.222222 0.888889
vt 0.888889 0.777778
vt 0.777778 0.888889
vt 0.888889 0.888889
vt 0.888889 0.111111
vt 0.777778 0.222222
vt 0.888889 0.222222
vt 0.222222 0.444444
vt 0.222222 0.444444
vt 1.000000 1.000000
vt 0.111111 0.555556
vt 0.111111 0.444444
vt 0.111111 0.444444
vt 0.222222 0.444444
vt 0.222222 0.444444
vt 0.111111 0.444444
vt 0.111111 0.444444
vn 0.0000 1.0000 0.0000
vn 1.0000 -0.0000 0.0000
vn 0.0000 0.0000 1.0000
vn -0.3015 0.9045 0.3015
vn 0.3015 0.9045 0.3015
vn -0.7071 0.0000 -0.7071
vn 0.5774 0.5774 -0.5774
vn 0.7071 0.0000 -0.7071
vn 0.3015 0.9045 -0.3015
vn -0.3015 0.9045 -0.3015
vn -1.0000 -0.0000 0.0000
vn 0.0000 0.0000 -1.0000
vn 0.7071 0.7071 0.0000
vn 0.9045 -0.3015 0.3015
vn -0.5774 0.5774 -0.5774
vn -0.7071 0.7071 0.0000
vn -0.9045 -0.3015 0.3015
vn 0.5774 0.5774 0.5774
vn 0.5774 -0.5774 0.5774
vn -0.5774 0.5774 0.5774
vn -0.5774 -0.5774 0.5774
usemtl None
s 1
f 1/1/1 2/2/1 3/3/1
f 4/4/1 5/5/1 1/1/1
f 6/6/1 7/7/1 4/4/1
f 8/8/1 9/9/1 6/6/1
f 10/10/1 11/11/1 8/8/1
f 12/12/1 13/13/1 10/10/1
f 14/14/1 15/15/1 12/12/1
f 16/16/1 17/17/1 14/14/1
f 18/18/1 19/19/1 16/16/1
f 5/5/1 20/20/1 2/2/1
f 21/21/2 22/22/2 7/7/2
f 9/9/1 21/21/1 7/7/1
f 11/11/1 23/23/1 9/9/1
f 13/13/1 24/24/1 11/11/1
f 15/15/1 25/25/1 13/13/1
f 17/17/1 26/26/1 15/15/1
f 19/19/3 27/27/3 17/17/3
f 28/28/1 29/29/1 19/19/1
f 30/30/1 31/31/1 20/20/1
f 21/21/1 32/32/1 30/30/1
f 23/23/1 33/33/1 21/21/1
f 24/24/1 34/34/1 23/23/1
f 25/25/1 35/35/1 24/24/1
f 26/26/1 36/36/1 25/25/1
f 37/37/1 38/38/1 26/26/1
f 29/29/1 39/39/1 37/37/1
f 40/40/1 41/41/1 29/29/1
f 32/32/1 42/42/1 31/31/1
f 33/33/1 43/43/4 32/32/1
f 34/34/1 44/44/5 33/33/1
f 35/35/1 45/45/1 34/34/1
f 36/36/1 46/46/1 35/35/1
f 38/38/1 47/47/1 36/36/1
f 39/39/1 48/48/1 38/38/1
f 41/41/1 49/49/1 39/39/1
f 50/50/1 51/51/1 41/41/1
f 43/43/4 52/52/1 42/42/1
f 123/53/6 120/54/7 121/55/8
f 45/45/1 54/56/9 44/44/5
f 46/46/1 55/57/1 45/45/1
f 47/47/1 56/58/1 46/46/1
f 48/48/1 57/59/1 47/47/1
f 49/49/1 58/60/1 48/48/1
f 51/51/1 59/61/1 49/49/1
f 60/62/1 61/63/1 51/51/1
f 53/64/10 62/65/1 52/52/1
f 54/56/9 63/66/1 53/64/10
f 55/57/1 64/67/1 54/56/9
f 56/58/1 65/68/1 55/57/1
f 57/59/1 66/69/1 56/58/1
f 58/60/1 67/70/1 57/59/1
f 59/61/1 68/71/1 58/60/1
f 61/63/1 69/72/1 59/61/1
f 70/73/1 71/74/1 61/63/1
f 63/66/1 72/75/1 62/65/1
f 64/67/1 73/76/1 63/66/1
f 65/68/1 74/77/1 64/67/1
f 66/69/1 75/78/1 65/68/1
f 67/70/1 76/79/1 66/69/1
f 68/71/1 77/80/1 67/70/1
f 69/72/1 78/81/1 68/71/1
f 71/74/1 79/82/1 69/72/1
f 80/83/1 81/84/1 71/74/1
f 73/76/1 82/85/1 72/75/1
f 83/86/2 84/87/2 74/77/2
f 75/78/1 83/86/1 74/77/1
f 76/79/1 85/88/1 75/78/1
f 77/80/1 86/89/1 76/79/1
f 78/81/1 87/90/1 77/80/1
f 79/82/1 88/91/1 78/81/1
f 81/84/3 89/92/3 79/82/3
f 90/93/1 91/94/1 81/84/1
f 92/95/1 93/96/1 82/85/1
f 83/86/1 94/97/1 92/95/1
f 85/88/1 95/98/1 83/86/1
f 86/89/1 96/99/1 85/88/1
f 87/90/1 97/100/1 86/89/1
f 88/91/1 98/101/1 87/90/1
f 99/102/1 100/103/1 88/91/1
f 91/94/1 101/104/1 99/102/1
f 102/105/1 103/106/1 91/94/1
f 22/22/1 104/107/1 105/108/1
f 5/5/11 104/107/11 30/30/11
f 30/30/12 106/109/12 21/21/12
f 7/7/3 105/108/3 5/5/3
f 84/87/1 107/110/1 108/111/1
f 73/76/11 107/110/11 92/95/11
f 92/95/12 109/112/12 83/86/12
f 74/77/3 108/111/3 73/76/3
f 110/113/1 111/114/1 89/92/1
f 91/94/2 110/113/2 81/84/2
f 79/82/11 111/114/11 99/102/11
f 99/102/12 112/115/12 91/94/12
f 113/116/1 114/117/1 27/27/1
f 37/37/12 115/118/12 29/29/12
f 29/29/2 113/116/2 19/19/2
f 17/17/11 114/117/11 37/37/11
f 1/1/1 5/5/1 2/2/1
f 4/4/1 7/7/1 5/5/1
f 6/6/1 9/9/1 7/7/1
f 8/8/1 11/11/1 9/9/1
f 10/10/1 13/13/1 11/11/1
f 12/12/1 15/15/1 13/13/1
f 14/14/1 17/17/1 15/15/1
f 16/16/1 19/19/1 17/17/1
f 18/18/1 28/28/1 19/19/1
f 5/5/1 30/30/1 20/20/1
f 21/21/2 106/109/2 22/22/2
f 9/9/1 23/23/1 21/21/1
f 11/11/1 24/24/1 23/23/1
f 13/13/1 25/25/1 24/24/1
f 15/15/1 26/26/1 25/25/1
f 17/17/1 37/37/1 26/26/1
f 19/19/3 113/116/3 27/27/3
f 28/28/1 40/40/1 29/29/1
f 30/30/1 32/32/1 31/31/1
f 21/21/1 33/33/1 32/32/1
f 23/23/1 34/34/1 33/33/1
f 24/24/1 35/35/1 34/34/1
f 25/25/1 36/36/1 35/35/1
f 26/26/1 38/38/1 36/36/1
f 37/37/1 39/39/1 38/38/1
f 29/29/1 41/41/1 39/39/1
f 40/40/1 50/50/1 41/41/1
f 32/32/1 43/43/4 42/42/1
f 33/33/1 44/44/5 43/43/4
f 34/34/1 45/45/1 44/44/5
f 35/35/1 46/46/1 45/45/1
f 36/36/1 47/47/1 46/46/1
f 38/38/1 48/48/1 47/47/1
f 39/39/1 49/49/1 48/48/1
f 41/41/1 51/51/1 49/49/1
f 50/50/1 60/62/1 51/51/1
f 43/43/4 53/64/10 52/52/1
f 121/55/8 118/119/13 122/120/14
f 45/45/1 55/57/1 54/56/9
f 46/46/1 56/58/1 55/57/1
f 47/47/1 57/59/1 56/58/1
f 48/48/1 58/60/1 57/59/1
f 49/49/1 59/61/1 58/60/1
f 51/51/1 61/63/1 59/61/1
f 60/62/1 70/73/1 61/63/1
f 53/64/10 63/66/1 62/65/1
f 54/56/9 64/67/1 63/66/1
f 55/57/1 65/68/1 64/67/1
f 56/58/1 66/69/1 65/68/1
f 57/59/1 67/70/1 66/69/1
f 58/60/1 68/71/1 67/70/1
f 59/61/1 69/72/1 68/71/1
f 61/63/1 71/74/1 69/72/1
f 70/73/1 80/83/1 71/74/1
f 63/66/1 73/76/1 72/75/1
f 64/67/1 74/77/1 73/76/1
f 65/68/1 75/78/1 74/77/1
f 66/69/1 76/79/1 75/78/1
f 67/70/1 77/80/1 76/79/1
f 68/71/1 78/81/1 77/80/1
f 69/72/1 79/82/1 78/81/1
f 71/74/1 81/84/1 79/82/1
f 80/83/1 90/93/1 81/84/1
f 73/76/1 92/95/1 82/85/1
f 83/86/2 109/112/2 84/87/2
f 75/78/1 85/88/1 83/86/1
f 76/79/1 86/89/1 85/88/1
f 77/80/1 87/90/1 86/89/1
f 78/81/1 88/91/1 87/90/1
f 79/82/1 99/102/1 88/91/1
f 81/84/3 110/113/3 89/92/3
f 90/93/1 102/105/1 91/94/1
f 92/95/1 94/97/1 93/96/1
f 83/86/1 95/98/1 94/97/1
f 85/88/1 96/99/1 95/98/1
f 86/89/1 97/100/1 96/99/1
f 87/90/1 98/101/1 97/100/1
f 88/91/1 100/103/1 98/101/1
f 99/102/1 101/104/1 100/103/1
f 91/94/1 103/106/1 101/104/1
f 102/105/1 116/121/1 103/106/1
f 22/22/1 106/109/1 104/107/1
f 5/5/11 105/108/11 104/107/11
f 30/30/12 104/107/12 106/109/12
f 7/7/3 22/22/3 105/108/3
f 84/87/1 109/112/1 107/110/1
f 73/76/11 108/111/11 107/110/11
f 92/95/12 107/110/12 109/112/12
f 74/77/3 84/87/3 108/111/3
f 110/113/1 112/115/1 111/114/1
f 91/94/2 112/115/2 110/113/2
f 79/82/11 89/92/11 111/114/11
f 99/102/12 111/114/12 112/115/12
f 113/116/1 115/118/1 114/117/1
f 37/37/12 114/117/12 115/118/12
f 29/29/2 115/118/2 113/116/2
f 17/17/11 27/27/11 114/117/11
f 118/119/13 119/122/15 117/123/16
f 118/119/13 120/54/7 119/122/15
f 124/124/17 119/122/15 123/53/6
f 117/123/16 126/125/18 118/119/13
f 44/44/5 124/124/17 43/43/4
f 43/43/4 123/53/6 53/64/10
f 54/56/9 122/120/14 44/44/5
f 53/64/10 121/55/8 54/56/9
f 128/126/19 125/127/20 127/128/21
f 118/119/13 128/126/19 122/120/14
f 117/123/16 127/128/21 125/127/20
f 122/120/14 127/128/21 124/124/17
f 123/53/6 119/122/15 120/54/7
f 121/55/8 120/54/7 118/119/13
f 124/124/17 117/123/16 119/122/15
f 117/123/16 125/127/20 126/125/18
f 44/44/5 122/120/14 124/124/17
f 43/43/4 124/124/17 123/53/6
f 54/56/9 121/55/8 122/120/14
f 53/64/10 123/53/6 121/55/8
f 128/126/19 126/125/18 125/127/20
f 118/119/13 126/125/18 128/126/19
f 117/123/16 124/124/17 127/128/21
f 122/120/14 128/126/19 127/128/21
