# Blender v2.80 (sub 75) OBJ File: ''
# www.blender.org
mtllib plane2.mtl
o Grid
v -7.487755 0.000000 7.487755
v -5.823810 0.000000 7.487755
v -4.159864 0.000000 7.487755
v -2.495918 0.000000 7.487755
v -0.831973 0.000000 7.487755
v 0.831973 0.000000 7.487755
v 2.495919 0.000000 7.487755
v 4.159864 0.000000 7.487755
v 5.823810 0.000000 7.487755
v 7.487755 0.000000 7.487755
v -7.487755 0.000000 5.823810
v -5.823810 0.000000 5.823810
v -4.159864 0.000000 5.823810
v -2.495918 0.000000 5.823810
v -0.831973 0.000000 5.823810
v 0.831973 0.000000 5.823810
v 2.495919 0.000000 5.823810
v 4.159864 0.000000 5.823810
v 5.823810 0.000000 5.823810
v 7.487755 0.000000 5.823810
v -7.487755 0.000000 4.159864
v -5.823810 0.000000 4.159864
v -4.159864 0.000000 4.159864
v -2.495918 0.000000 4.159864
v -0.831973 0.000000 4.159864
v 0.831973 0.000000 4.159864
v 2.495919 0.000000 4.159864
v 4.159864 0.000000 4.159864
v 5.823810 0.000000 4.159864
v 7.487755 0.000000 4.159864
v -7.487755 0.000000 2.495918
v -5.823810 0.000000 2.495918
v -4.159864 0.000000 2.495918
v -2.495918 0.000000 2.495918
v -0.831973 0.000000 2.495918
v 0.831973 0.000000 2.495918
v 2.495919 0.000000 2.495918
v 4.159864 0.000000 2.495918
v 5.823810 0.000000 2.495918
v 7.487755 0.000000 2.495918
v -7.487755 0.000000 0.831973
v -5.823810 0.000000 0.831973
v -4.159864 0.000000 0.831973
v -2.495918 0.000000 0.831973
v -0.831973 0.000000 0.831973
v 0.831973 0.000000 0.831973
v 2.495919 0.000000 0.831973
v 4.159864 0.000000 0.831973
v 5.823810 0.000000 0.831973
v 7.487755 0.000000 0.831973
v -7.487755 0.000000 -0.831973
v -5.823810 0.000000 -0.831973
v -4.159864 0.000000 -0.831973
v -2.495918 0.000000 -0.831973
v -0.831973 0.000000 -0.831973
v 0.831973 0.000000 -0.831973
v 2.495919 0.000000 -0.831973
v 4.159864 0.000000 -0.831973
v 5.823810 0.000000 -0.831973
v 7.487755 0.000000 -0.831973
v -7.487755 0.000000 -2.495919
v -5.823810 0.000000 -2.495919
v -4.159864 0.000000 -2.495919
v -2.495918 0.000000 -2.495919
v -0.831973 0.000000 -2.495919
v 0.831973 0.000000 -2.495919
v 2.495919 0.000000 -2.495919
v 4.159864 0.000000 -2.495919
v 5.823810 0.000000 -2.495919
v 7.487755 0.000000 -2.495919
v -7.487755 0.000000 -4.159864
v -5.823810 0.000000 -4.159864
v -4.159864 0.000000 -4.159864
v -2.495918 0.000000 -4.159864
v -0.831973 0.000000 -4.159864
v 0.831973 0.000000 -4.159864
v 2.495919 0.000000 -4.159864
v 4.159864 0.000000 -4.159864
v 5.823810 0.000000 -4.159864
v 7.487755 0.000000 -4.159864
v -7.487755 0.000000 -5.823810
v -5.823810 0.000000 -5.823810
v -4.159864 0.000000 -5.823810
v -2.495918 0.000000 -5.823810
v -0.831973 0.000000 -5.823810
v 0.831973 0.000000 -5.823810
v 2.495919 0.000000 -5.823810
v 4.159864 0.000000 -5.823810
v 5.823810 0.000000 -5.823810
v 7.487755 0.000000 -5.823810
v -7.487755 0.000000 -7.487755
v -5.823810 0.000000 -7.487755
v -4.159864 0.000000 -7.487755
v -2.495918 0.000000 -7.487755
v -0.831973 0.000000 -7.487755
v 0.831973 0.000000 -7.487755
v 2.495919 0.000000 -7.487755
v 4.159864 0.000000 -7.487755
v 5.823810 0.000000 -7.487755
v 7.487755 0.000000 -7.487755
v -4.159864 6.973997 5.823810
v -5.823810 6.973997 5.823810
v -5.823810 6.973997 4.159864
v -4.159864 6.973997 4.159864
v -4.159864 3.015443 -4.159864
v -5.823810 3.015443 -4.159864
v -5.823810 3.015443 -5.823810
v -4.159864 3.015443 -5.823810
v 5.823810 4.233416 -4.159864
v 4.159864 4.233416 -4.159864
v 4.159864 4.233416 -5.823810
v 5.823810 4.233416 -5.823810
v 5.823810 0.792424 5.823810
v 4.159864 0.792424 5.823810
v 4.159864 0.792424 4.159864
v 5.823810 0.792424 4.159864
vt 0.111111 0.000000
vt 0.000000 0.111111
vt 0.000000 0.000000
vt 0.222222 0.000000
vt 0.111111 0.111111
vt 0.333333 0.000000
vt 0.222222 0.111111
vt 0.444444 0.000000
vt 0.333333 0.111111
vt 0.555556 0.000000
vt 0.444444 0.111111
vt 0.666667 0.000000
vt 0.555556 0.111111
vt 0.777778 0.000000
vt 0.666667 0.111111
vt 0.888889 0.000000
vt 0.777778 0.111111
vt 1.000000 0.000000
vt 0.888889 0.111111
vt 0.000000 0.222222
vt 0.222222 0.222222
vt 0.222222 0.111111
vt 0.333333 0.222222
vt 0.444444 0.222222
vt 0.555556 0.222222
vt 0.666667 0.222222
vt 0.777778 0.111111
vt 1.000000 0.111111
vt 0.888889 0.222222
vt 0.111111 0.222222
vt 0.000000 0.333333
vt 0.111111 0.333333
vt 0.222222 0.333333
vt 0.333333 0.333333
vt 0.444444 0.333333
vt 0.555556 0.333333
vt 0.777778 0.222222
vt 0.666667 0.333333
vt 0.777778 0.333333
vt 1.000000 0.222222
vt 0.888889 0.333333
vt 0.000000 0.444444
vt 0.111111 0.444444
vt 0.222222 0.444444
vt 0.333333 0.444444
vt 0.444444 0.444444
vt 0.555556 0.444444
vt 0.666667 0.444444
vt 0.777778 0.444444
vt 1.000000 0.333333
vt 0.888889 0.444444
vt 0.000000 0.555556
vt 0.111111 0.555556
vt 0.222222 0.555556
vt 0.333333 0.555556
vt 0.444444 0.555556
vt 0.555556 0.555556
vt 0.666667 0.555556
vt 0.777778 0.555556
vt 1.000000 0.444444
vt 0.888889 0.555556
vt 0.000000 0.666667
vt 0.111111 0.666667
vt 0.222222 0.666667
vt 0.333333 0.666667
vt 0.444444 0.666667
vt 0.555556 0.666667
vt 0.666667 0.666667
vt 0.777778 0.666667
vt 1.000000 0.555556
vt 0.888889 0.666667
vt 0.000000 0.777778
vt 0.111111 0.777778
vt 0.222222 0.777778
vt 0.333333 0.777778
vt 0.444444 0.777778
vt 0.555556 0.777778
vt 0.666667 0.777778
vt 0.777778 0.777778
vt 1.000000 0.666667
vt 0.888889 0.777778
vt 0.000000 0.888889
vt 0.222222 0.888889
vt 0.222222 0.777778
vt 0.333333 0.888889
vt 0.444444 0.888889
vt 0.555556 0.888889
vt 0.666667 0.888889
vt 0.777778 0.777778
vt 1.000000 0.777778
vt 0.888889 0.888889
vt 0.111111 0.888889
vt 0.000000 1.000000
vt 0.111111 1.000000
vt 0.222222 1.000000
vt 0.333333 1.000000
vt 0.444444 1.000000
vt 0.555556 1.000000
vt 0.777778 0.888889
vt 0.666667 1.000000
vt 0.777778 1.000000
vt 1.000000 0.888889
vt 0.888889 1.000000
vt 0.111111 0.222222
vt 0.111111 0.111111
vt 0.222222 0.222222
vt 0.111111 0.888889
vt 0.111111 0.777778
vt 0.222222 0.888889
vt 0.888889 0.777778
vt 0.777778 0.888889
vt 0.888889 0.888889
vt 0.888889 0.111111
vt 0.777778 0.222222
vt 0.888889 0.222222
vt 1.000000 1.000000
vn 0.0000 1.0000 0.0000
vn 1.0000 0.0000 0.0000
vn 0.0000 0.0000 1.0000
vn -1.0000 0.0000 0.0000
vn 0.0000 0.0000 -1.0000
usemtl None
s off
f 2/1/1 11/2/1 1/3/1
f 3/4/1 12/5/1 2/1/1
f 4/6/1 13/7/1 3/4/1
f 5/8/1 14/9/1 4/6/1
f 6/10/1 15/11/1 5/8/1
f 7/12/1 16/13/1 6/10/1
f 8/14/1 17/15/1 7/12/1
f 9/16/1 18/17/1 8/14/1
f 10/18/1 19/19/1 9/16/1
f 12/5/1 21/20/1 11/2/1
f 23/21/2 101/22/2 13/7/2
f 14/9/1 23/21/1 13/7/1
f 15/11/1 24/23/1 14/9/1
f 16/13/1 25/24/1 15/11/1
f 17/15/1 26/25/1 16/13/1
f 18/17/1 27/26/1 17/15/1
f 19/19/3 114/27/3 18/17/3
f 20/28/1 29/29/1 19/19/1
f 22/30/1 31/31/1 21/20/1
f 23/21/1 32/32/1 22/30/1
f 24/23/1 33/33/1 23/21/1
f 25/24/1 34/34/1 24/23/1
f 26/25/1 35/35/1 25/24/1
f 27/26/1 36/36/1 26/25/1
f 28/37/1 37/38/1 27/26/1
f 29/29/1 38/39/1 28/37/1
f 30/40/1 39/41/1 29/29/1
f 32/32/1 41/42/1 31/31/1
f 33/33/1 42/43/1 32/32/1
f 34/34/1 43/44/1 33/33/1
f 35/35/1 44/45/1 34/34/1
f 36/36/1 45/46/1 35/35/1
f 37/38/1 46/47/1 36/36/1
f 38/39/1 47/48/1 37/38/1
f 39/41/1 48/49/1 38/39/1
f 40/50/1 49/51/1 39/41/1
f 42/43/1 51/52/1 41/42/1
f 43/44/1 52/53/1 42/43/1
f 44/45/1 53/54/1 43/44/1
f 45/46/1 54/55/1 44/45/1
f 46/47/1 55/56/1 45/46/1
f 47/48/1 56/57/1 46/47/1
f 48/49/1 57/58/1 47/48/1
f 49/51/1 58/59/1 48/49/1
f 50/60/1 59/61/1 49/51/1
f 52/53/1 61/62/1 51/52/1
f 53/54/1 62/63/1 52/53/1
f 54/55/1 63/64/1 53/54/1
f 55/56/1 64/65/1 54/55/1
f 56/57/1 65/66/1 55/56/1
f 57/58/1 66/67/1 56/57/1
f 58/59/1 67/68/1 57/58/1
f 59/61/1 68/69/1 58/59/1
f 60/70/1 69/71/1 59/61/1
f 62/63/1 71/72/1 61/62/1
f 63/64/1 72/73/1 62/63/1
f 64/65/1 73/74/1 63/64/1
f 65/66/1 74/75/1 64/65/1
f 66/67/1 75/76/1 65/66/1
f 67/68/1 76/77/1 66/67/1
f 68/69/1 77/78/1 67/68/1
f 69/71/1 78/79/1 68/69/1
f 70/80/1 79/81/1 69/71/1
f 72/73/1 81/82/1 71/72/1
f 83/83/2 105/84/2 73/74/2
f 74/75/1 83/83/1 73/74/1
f 75/76/1 84/85/1 74/75/1
f 76/77/1 85/86/1 75/76/1
f 77/78/1 86/87/1 76/77/1
f 78/79/1 87/88/1 77/78/1
f 79/81/3 110/89/3 78/79/3
f 80/90/1 89/91/1 79/81/1
f 82/92/1 91/93/1 81/82/1
f 83/83/1 92/94/1 82/92/1
f 84/85/1 93/95/1 83/83/1
f 85/86/1 94/96/1 84/85/1
f 86/87/1 95/97/1 85/86/1
f 87/88/1 96/98/1 86/87/1
f 88/99/1 97/100/1 87/88/1
f 89/91/1 98/101/1 88/99/1
f 90/102/1 99/103/1 89/91/1
f 101/22/1 103/104/1 102/105/1
f 12/5/4 103/104/4 22/30/4
f 22/30/5 104/106/5 23/21/5
f 13/7/3 102/105/3 12/5/3
f 105/84/1 107/107/1 106/108/1
f 72/73/4 107/107/4 82/92/4
f 82/92/5 108/109/5 83/83/5
f 73/74/3 106/108/3 72/73/3
f 109/110/1 111/111/1 110/89/1
f 89/91/2 109/110/2 79/81/2
f 78/79/4 111/111/4 88/99/4
f 88/99/5 112/112/5 89/91/5
f 113/113/1 115/114/1 114/27/1
f 28/37/5 116/115/5 29/29/5
f 29/29/2 113/113/2 19/19/2
f 18/17/4 115/114/4 28/37/4
f 2/1/1 12/5/1 11/2/1
f 3/4/1 13/7/1 12/5/1
f 4/6/1 14/9/1 13/7/1
f 5/8/1 15/11/1 14/9/1
f 6/10/1 16/13/1 15/11/1
f 7/12/1 17/15/1 16/13/1
f 8/14/1 18/17/1 17/15/1
f 9/16/1 19/19/1 18/17/1
f 10/18/1 20/28/1 19/19/1
f 12/5/1 22/30/1 21/20/1
f 23/21/2 104/106/2 101/22/2
f 14/9/1 24/23/1 23/21/1
f 15/11/1 25/24/1 24/23/1
f 16/13/1 26/25/1 25/24/1
f 17/15/1 27/26/1 26/25/1
f 18/17/1 28/37/1 27/26/1
f 19/19/3 113/113/3 114/27/3
f 20/28/1 30/40/1 29/29/1
f 22/30/1 32/32/1 31/31/1
f 23/21/1 33/33/1 32/32/1
f 24/23/1 34/34/1 33/33/1
f 25/24/1 35/35/1 34/34/1
f 26/25/1 36/36/1 35/35/1
f 27/26/1 37/38/1 36/36/1
f 28/37/1 38/39/1 37/38/1
f 29/29/1 39/41/1 38/39/1
f 30/40/1 40/50/1 39/41/1
f 32/32/1 42/43/1 41/42/1
f 33/33/1 43/44/1 42/43/1
f 34/34/1 44/45/1 43/44/1
f 35/35/1 45/46/1 44/45/1
f 36/36/1 46/47/1 45/46/1
f 37/38/1 47/48/1 46/47/1
f 38/39/1 48/49/1 47/48/1
f 39/41/1 49/51/1 48/49/1
f 40/50/1 50/60/1 49/51/1
f 42/43/1 52/53/1 51/52/1
f 43/44/1 53/54/1 52/53/1
f 44/45/1 54/55/1 53/54/1
f 45/46/1 55/56/1 54/55/1
f 46/47/1 56/57/1 55/56/1
f 47/48/1 57/58/1 56/57/1
f 48/49/1 58/59/1 57/58/1
f 49/51/1 59/61/1 58/59/1
f 50/60/1 60/70/1 59/61/1
f 52/53/1 62/63/1 61/62/1
f 53/54/1 63/64/1 62/63/1
f 54/55/1 64/65/1 63/64/1
f 55/56/1 65/66/1 64/65/1
f 56/57/1 66/67/1 65/66/1
f 57/58/1 67/68/1 66/67/1
f 58/59/1 68/69/1 67/68/1
f 59/61/1 69/71/1 68/69/1
f 60/70/1 70/80/1 69/71/1
f 62/63/1 72/73/1 71/72/1
f 63/64/1 73/74/1 72/73/1
f 64/65/1 74/75/1 73/74/1
f 65/66/1 75/76/1 74/75/1
f 66/67/1 76/77/1 75/76/1
f 67/68/1 77/78/1 76/77/1
f 68/69/1 78/79/1 77/78/1
f 69/71/1 79/81/1 78/79/1
f 70/80/1 80/90/1 79/81/1
f 72/73/1 82/92/1 81/82/1
f 83/83/2 108/109/2 105/84/2
f 74/75/1 84/85/1 83/83/1
f 75/76/1 85/86/1 84/85/1
f 76/77/1 86/87/1 85/86/1
f 77/78/1 87/88/1 86/87/1
f 78/79/1 88/99/1 87/88/1
f 79/81/3 109/110/3 110/89/3
f 80/90/1 90/102/1 89/91/1
f 82/92/1 92/94/1 91/93/1
f 83/83/1 93/95/1 92/94/1
f 84/85/1 94/96/1 93/95/1
f 85/86/1 95/97/1 94/96/1
f 86/87/1 96/98/1 95/97/1
f 87/88/1 97/100/1 96/98/1
f 88/99/1 98/101/1 97/100/1
f 89/91/1 99/103/1 98/101/1
f 90/102/1 100/116/1 99/103/1
f 101/22/1 104/106/1 103/104/1
f 12/5/4 102/105/4 103/104/4
f 22/30/5 103/104/5 104/106/5
f 13/7/3 101/22/3 102/105/3
f 105/84/1 108/109/1 107/107/1
f 72/73/4 106/108/4 107/107/4
f 82/92/5 107/107/5 108/109/5
f 73/74/3 105/84/3 106/108/3
f 109/110/1 112/112/1 111/111/1
f 89/91/2 112/112/2 109/110/2
f 78/79/4 110/89/4 111/111/4
f 88/99/5 111/111/5 112/112/5
f 113/113/1 116/115/1 115/114/1
f 28/37/5 115/114/5 116/115/5
f 29/29/2 116/115/2 113/113/2
f 18/17/4 114/27/4 115/114/4
